<svg width="25" height="25" viewBox="0 0 25 25" fill="none" xmlns="http://www.w3.org/2000/svg">
<path d="M9.375 9.375H10.9375V18.75H9.375V9.375Z" fill="#EA1C1C"/>
<path d="M14.0625 9.375H15.625V18.75H14.0625V9.375Z" fill="#EA1C1C"/>
<path d="M3.125 4.6875V6.25H4.6875V21.875C4.6875 22.2894 4.85212 22.6868 5.14515 22.9799C5.43817 23.2729 5.8356 23.4375 6.25 23.4375H18.75C19.1644 23.4375 19.5618 23.2729 19.8549 22.9799C20.1479 22.6868 20.3125 22.2894 20.3125 21.875V6.25H21.875V4.6875H3.125ZM6.25 21.875V6.25H18.75V21.875H6.25Z" fill="#EA1C1C"/>
<path d="M9.375 1.5625H15.625V3.125H9.375V1.5625Z" fill="#EA1C1C"/>
</svg>
